<svg width="33" height="32" viewBox="0 0 33 32" fill="none" xmlns="http://www.w3.org/2000/svg">
<path d="M24.3941 1H8.8261C7.54561 1 6.28622 1.32614 5.16668 1.94767C4.3538 2.39895 3.63141 2.9967 3.03595 3.71074L3.00238 3.751C2.53986 4.30563 2.1564 4.92166 1.86293 5.58151L1.78846 5.74895C1.26861 6.91778 1 8.18274 1 9.46196V22.6084C1 23.8381 1.28646 25.0508 1.83668 26.1504C2.14771 26.7721 2.53928 27.35 3.00126 27.8694L3.84612 28.8192C4.54863 29.609 5.43309 30.2156 6.42288 30.5865C7.15256 30.8599 7.92545 31 8.70468 31H24.4014C25.1125 31 25.8197 30.8963 26.5008 30.6921C27.9553 30.256 29.238 29.3779 30.1706 28.1796L30.2832 28.0349C30.7723 27.4066 31.1634 26.7078 31.4431 25.9623L31.4679 25.8963C31.8197 24.9586 32 23.9652 32 22.9636V8.92429C32 7.99892 31.8119 7.08319 31.4472 6.23273C31.1649 5.57443 30.7807 4.96465 30.3088 4.42575L29.2296 3.19314C28.9022 2.81926 28.5326 2.48462 28.1281 2.19591C27.0384 1.4181 25.733 1 24.3941 1Z" stroke="white"/>
</svg>
