<svg width="87" height="77" viewBox="0 0 87 77" fill="none" xmlns="http://www.w3.org/2000/svg">
<path d="M62.8182 66.1064L66.8907 70.3617L67.2039 70.6808L67.5172 70.8936L67.8305 71L68.0393 70.8936L68.2482 70.7872L69.0835 70.1489L70.2322 69.4043L71.5897 68.3404L72.9472 67.2766L74.4091 65.8936L75.871 64.5106L77.0197 63.234L78.6904 61.2128L80.0479 59.4043L81.1966 57.5957L82.3452 55.3617L83.3894 53.234L84.4337 50.4681L85.3735 47.0638L85.7912 44.617L86 42.0638V41.1064V38.6596V36.5319L85.7912 35.0426L85.5823 33.6596L85.3735 32.4894L85.0602 30.7872L84.7469 29.5106L84.3292 27.8085L84.016 26.5319L83.4939 24.8298L82.8673 23.1277L82.2408 21.7447L81.6143 20.3617L80.7789 18.8723L80.0479 17.5957L79.1081 16.3191L78.0639 14.7234L77.0197 13.5532L75.871 12.2766L74.6179 10.8936L73.2604 9.82979L71.4853 8.23404L69.8145 7.17021L67.9349 5.89362L65.742 4.61702L63.1315 3.44681L59.8944 2.38298L57.0749 1.6383L54.2555 1.21277L52.4803 1H50.6007H49.4521H47.7813L46.4238 1.21277L44.8575 1.42553L43.6044 1.6383L42.2469 1.95745L40.4717 2.38298L39.1143 2.70213L37.4435 3.12766L35.7727 3.76596L33.7887 4.61702L32.0135 5.46808L30.4472 6.31915L28.8808 7.38298L27.8366 8.12766L26.2703 9.29787L25.1216 10.2553L23.7641 11.4255L22.7199 12.383L21.4668 13.766L20.527 14.7234L19.4828 16L18.2297 17.4894L17.3943 18.766L16.559 19.9362L15.9324 21.2128L15.4103 22.0638L14.9926 22.2766H3.19287H1.52211L1.31327 22.4894L1.10442 22.7527L1 23.0213V23.234L1.10442 23.4468L1.31327 23.6596L5.80344 29.8298L6.11671 30.3617H6.68994H22.6155H41.0983H42.0381L42.6646 30.5745L43.2912 30.7872L44.0221 31.2128L44.6486 31.6383L45.2752 32.0638L45.7973 32.7021L46.3194 33.3404L46.8415 33.9787L47.3636 34.7234L47.7813 35.4681L48.0946 36.1064L48.3034 36.8511L48.5123 37.383L48.6167 37.9149V38.5532V40.1489L48.4079 40.7872L48.199 41.3191L47.8857 42.0638L47.4681 42.8085L47.0504 43.4468L46.6327 44.0851L46.1106 44.7234L45.3796 45.4681L44.5442 46.2128L43.8133 46.8511L43.3956 47.0638H43.0823H42.1425H40.4717H38.3833H34.8329H31.9091H28.8808H24.4951H19.0651L14.4705 46.9574H13.5307L13.3219 47.0638L13.2174 47.1702L13.0086 47.4894V48.0213L13.2174 48.8723L13.4263 49.617L13.7396 50.7872L14.1572 51.9574L14.5749 53.0213L14.8882 53.766L15.6192 55.3617L16.4545 57.0638L17.2899 58.5532L18.4386 60.2553L19.5872 61.7447L20.6314 63.1277L21.6757 64.2979L22.6155 65.1489L23.973 66.5319L25.3305 67.8085L26.7924 69.0851L28.1499 70.2553L29.8206 71.3192L31.0737 72.1702L32.7445 73.234L34.3108 74.0851L35.8772 74.8298L37.2346 75.3617L38.2789 75.7872L39.0098 76H39.4275H39.8452L40.1585 75.8936L40.4717 75.6808L40.5762 75.4681V75.1489L40.4717 74.9362L40.0541 74.5106L39.5319 73.8723L39.1143 73.234L38.5921 72.4894L37.7568 71.3192L36.7125 69.9362L35.6683 68.4468L33.5799 65.6808L30.5516 61.5319L27.0012 56.5319V56.1064L27.2101 55.7872L27.941 55.6809H46.4238L46.7371 55.5745L46.9459 55.3617L47.2592 55.0425L47.8857 54.4043L48.5123 53.8723L49.8698 52.8085L51.3317 51.7447L53.1069 50.1489L54.7776 48.3404L55.613 46.8511L56.6572 44.9362L57.2838 42.9149L57.4926 41.1064V39.1915V37.5957L57.2838 36.3191L56.8661 34.8298L56.4484 33.3404L55.613 31.6383L54.7776 30.2553L53.7334 28.6596L52.2715 26.9574L50.914 25.7872L49.6609 24.8298L48.199 23.766L46.6327 23.0213L44.7531 22.2766L43.6044 22.0638H42.0381H38.2789H30.5516H27.2101H26.688L26.4791 21.8511L26.3747 21.6383V21.3191L26.4791 21.1064L26.7924 20.7872L27.5233 19.9362L28.7764 18.4468L30.2383 16.9574L31.9091 15.4681L33.7887 13.9787L36.3993 12.4894L39.1143 11.1064L42.0381 10.0426L44.7531 9.40425L47.3636 8.97872H52.4803L54.5688 9.19149L57.0749 9.82979L60.2076 10.8936L63.3403 12.2766L65.9509 13.9787L68.6658 16L71.172 18.3404L73.0516 20.7872L74.9312 23.5532L76.4976 26.9574L77.6462 30.3617L78.3772 33.6596L78.6904 36.3191V37.8085V40.4681L78.3772 42.8085L78.0639 45.0426L77.4373 47.0638L76.4976 49.5106L75.6622 51.6383L74.7224 53.234L73.5737 54.9362L71.172 58.1277L68.6658 60.5745L65.742 62.8085L62.8182 64.7234L62.6093 65.3617L62.8182 66.1064Z" fill="white" fill-opacity="0.8" stroke="black"/>
</svg>
