<svg width="62" height="145" viewBox="0 0 62 145" fill="none" xmlns="http://www.w3.org/2000/svg">
<line x1="4.37114e-08" y1="14.5" x2="14" y2="14.5" stroke="white"/>
<path d="M40.5 14C40.5 13.1867 40.58 12.44 40.74 11.76C40.9 11.0667 41.1333 10.4733 41.44 9.98C41.7467 9.47333 42.1133 9.08667 42.54 8.82C42.98 8.54 43.4667 8.4 44 8.4C44.5467 8.4 45.0333 8.54 45.46 8.82C45.8867 9.08667 46.2533 9.47333 46.56 9.98C46.8667 10.4733 47.1 11.0667 47.26 11.76C47.42 12.44 47.5 13.1867 47.5 14C47.5 14.8133 47.42 15.5667 47.26 16.26C47.1 16.94 46.8667 17.5333 46.56 18.04C46.2533 18.5333 45.8867 18.92 45.46 19.2C45.0333 19.4667 44.5467 19.6 44 19.6C43.4667 19.6 42.98 19.4667 42.54 19.2C42.1133 18.92 41.7467 18.5333 41.44 18.04C41.1333 17.5333 40.9 16.94 40.74 16.26C40.58 15.5667 40.5 14.8133 40.5 14ZM38.8 14C38.8 15.4 39.02 16.64 39.46 17.72C39.9 18.8 40.5067 19.6533 41.28 20.28C42.0667 20.8933 42.9733 21.2 44 21.2C45.0267 21.2 45.9267 20.8933 46.7 20.28C47.4867 19.6533 48.1 18.8 48.54 17.72C48.98 16.64 49.2 15.4 49.2 14C49.2 12.6 48.98 11.36 48.54 10.28C48.1 9.2 47.4867 8.35333 46.7 7.74C45.9267 7.11333 45.0267 6.8 44 6.8C42.9733 6.8 42.0667 7.11333 41.28 7.74C40.5067 8.35333 39.9 9.2 39.46 10.28C39.02 11.36 38.8 12.6 38.8 14ZM51.5922 9.76L54.6922 8.84V21H56.3922V6.8L51.5922 8V9.76Z" fill="white"/>
<line x1="4.37114e-08" y1="43.5" x2="14" y2="43.5" stroke="white"/>
<line x1="4.37114e-08" y1="72.5" x2="14" y2="72.5" stroke="white"/>
<line x1="4.37114e-08" y1="130.5" x2="14" y2="130.5" stroke="white"/>
<path d="M40.5 130C40.5 129.187 40.58 128.44 40.74 127.76C40.9 127.067 41.1333 126.473 41.44 125.98C41.7467 125.473 42.1133 125.087 42.54 124.82C42.98 124.54 43.4667 124.4 44 124.4C44.5467 124.4 45.0333 124.54 45.46 124.82C45.8867 125.087 46.2533 125.473 46.56 125.98C46.8667 126.473 47.1 127.067 47.26 127.76C47.42 128.44 47.5 129.187 47.5 130C47.5 130.813 47.42 131.567 47.26 132.26C47.1 132.94 46.8667 133.533 46.56 134.04C46.2533 134.533 45.8867 134.92 45.46 135.2C45.0333 135.467 44.5467 135.6 44 135.6C43.4667 135.6 42.98 135.467 42.54 135.2C42.1133 134.92 41.7467 134.533 41.44 134.04C41.1333 133.533 40.9 132.94 40.74 132.26C40.58 131.567 40.5 130.813 40.5 130ZM38.8 130C38.8 131.4 39.02 132.64 39.46 133.72C39.9 134.8 40.5067 135.653 41.28 136.28C42.0667 136.893 42.9733 137.2 44 137.2C45.0267 137.2 45.9267 136.893 46.7 136.28C47.4867 135.653 48.1 134.8 48.54 133.72C48.98 132.64 49.2 131.4 49.2 130C49.2 128.6 48.98 127.36 48.54 126.28C48.1 125.2 47.4867 124.353 46.7 123.74C45.9267 123.113 45.0267 122.8 44 122.8C42.9733 122.8 42.0667 123.113 41.28 123.74C40.5067 124.353 39.9 125.2 39.46 126.28C39.02 127.36 38.8 128.6 38.8 130ZM58.8922 127.6C58.8922 128.24 58.7522 128.807 58.4722 129.3C58.2055 129.793 57.8322 130.187 57.3522 130.48C56.8855 130.76 56.3522 130.9 55.7522 130.9C55.1522 130.9 54.6122 130.76 54.1322 130.48C53.6655 130.187 53.2922 129.793 53.0122 129.3C52.7455 128.807 52.6122 128.24 52.6122 127.6C52.6122 126.96 52.7455 126.4 53.0122 125.92C53.2922 125.427 53.6655 125.04 54.1322 124.76C54.6122 124.48 55.1522 124.34 55.7522 124.34C56.3522 124.34 56.8855 124.48 57.3522 124.76C57.8322 125.04 58.2055 125.427 58.4722 125.92C58.7522 126.4 58.8922 126.96 58.8922 127.6ZM54.9122 137L59.6322 130.5C59.8989 130.127 60.1122 129.693 60.2722 129.2C60.4322 128.707 60.5122 128.173 60.5122 127.6C60.5122 126.64 60.2989 125.8 59.8722 125.08C59.4589 124.36 58.8922 123.8 58.1722 123.4C57.4655 123 56.6589 122.8 55.7522 122.8C54.8589 122.8 54.0522 123 53.3322 123.4C52.6122 123.8 52.0389 124.36 51.6122 125.08C51.1989 125.8 50.9922 126.64 50.9922 127.6C50.9922 128.24 51.0989 128.84 51.3122 129.4C51.5255 129.947 51.8189 130.427 52.1922 130.84C52.5789 131.253 53.0189 131.573 53.5122 131.8C54.0189 132.027 54.5589 132.14 55.1322 132.14C55.5855 132.14 55.9855 132.087 56.3322 131.98C56.6922 131.873 57.0055 131.653 57.2722 131.32L57.1522 131.22L52.7722 137H54.9122Z" fill="white"/>
<line x1="4.37114e-08" y1="101.5" x2="14" y2="101.5" stroke="white"/>
</svg>
