<svg width="38" height="33" viewBox="0 0 38 33" fill="none" xmlns="http://www.w3.org/2000/svg">
<path d="M15.2826 21.6667L25.5902 10.8233C25.9821 10.4111 25.4913 9.76881 24.9906 10.0387L10.0543 18.0897M15.2826 21.6667L20.1087 25.4242M15.2826 21.6667L12.8696 30.0128M10.0543 18.0897L12.8696 30.0128M10.0543 18.0897L1.05741 13.4665C0.663525 13.264 0.70777 12.6873 1.12792 12.5474L35.5631 1.07673C35.7086 1.02828 35.8682 1.04923 35.9962 1.13357L36.7071 1.6019C36.8829 1.71772 36.9673 1.93125 36.9183 2.13597L29.8528 31.6165C29.7989 31.8414 29.5978 32 29.3665 32H28.726C28.6148 32 28.5067 31.9629 28.4189 31.8945L20.1087 25.4242M12.8696 30.0128L20.1087 25.4242" stroke="white"/>
</svg>
