<svg width="39" height="31" viewBox="0 0 39 31" fill="none" xmlns="http://www.w3.org/2000/svg">
<path d="M3.78899 1.6988H1.6988C1.31286 1.6988 1 2.01166 1 2.39759V3.79518V6.59036L1.28012 12.4858C1.32562 13.4435 1.48763 14.3921 1.76257 15.3106C2.18025 16.7059 2.85256 18.0119 3.74553 19.1626L4.83486 20.5663L4.93348 20.6761C6.95013 22.9218 9.26257 24.883 11.8073 26.506L13.5505 27.5542L14.6088 28.0846C15.2969 28.4294 16.0086 28.7248 16.7385 28.9687L18.1544 29.4417C18.5695 29.5803 19.0012 29.6637 19.4381 29.6894L23.66 29.9383C24.2277 29.9718 24.7064 29.5205 24.7064 28.9518V27.9036V24.0602C24.7064 22.5988 26.3591 21.7494 27.5475 22.6001L28.9264 23.5872C29.3571 23.8956 29.6863 24.3252 29.8719 24.8213L30.3947 26.2185C30.5531 26.6417 30.7594 27.0454 31.0096 27.4216L31.3859 27.9872C31.8038 28.6155 32.4025 29.1021 33.1028 29.3829C33.544 29.5597 34.0149 29.6506 34.4901 29.6506H36.0511C36.6049 29.6506 37.1411 29.4561 37.5662 29.1011C38.4066 28.3992 38.6549 27.2118 38.166 26.232L37.9541 25.8072L36.9083 23.3614L35.8624 20.5663C35.1678 19.1739 34.3051 17.8719 33.2938 16.6894L32.7248 16.0241L34.8165 13.5783L35.2254 13.0661C35.8773 12.2494 36.3798 11.3238 36.7096 10.3321L36.7371 10.2495C36.8511 9.90689 36.9892 9.57279 37.1503 9.24971C37.679 8.19011 37.9541 7.02217 37.9541 5.83803V4.84337V3.09453C37.9541 2.6421 37.8076 2.20183 37.5366 1.83959C37.1411 1.31113 36.5196 1 35.8596 1H33.7706H32.4614C31.7683 1 31.1347 1.39192 30.8253 2.01214C30.6989 2.26564 30.633 2.54506 30.633 2.82835V4.77946C30.633 5.51489 30.501 6.24435 30.2433 6.93315L30.0993 7.31809C29.7654 8.21029 29.1735 8.98287 28.3989 9.53737L27.629 10.0885C27.3154 10.313 26.9394 10.4337 26.5537 10.4337C25.5335 10.4337 24.7064 9.60667 24.7064 8.58643V6.59036V3.79518C24.7064 2.25144 23.455 1 21.9112 1H19.8257H16.3394H15.6845C14.6984 1 13.8991 1.79937 13.8991 2.78544C13.8991 3.41197 14.2275 3.99266 14.7644 4.31554L15.2218 4.59055C15.4998 4.75776 15.7458 4.97321 15.9483 5.2268L16.2514 5.60653C16.7681 6.25384 17.1299 7.01074 17.3092 7.81934L17.5102 8.72569C17.6589 9.39652 17.7339 10.0816 17.7339 10.7687V13.5783V17.4217V19.1712C17.7339 19.8894 16.9136 20.299 16.3394 19.8675C14.7246 18.9426 13.2808 17.7469 12.0712 16.3327L11.8073 16.0241C10.2232 14.4364 9.19592 12.3783 8.87942 10.1579L8.79217 9.54576C8.71064 8.9738 8.66972 8.39679 8.66972 7.81905V4.20026C8.66972 3.93195 8.62656 3.6654 8.54188 3.4108C8.20188 2.38854 7.24558 1.6988 6.16826 1.6988H3.78899Z" stroke="white"/>
</svg>
